# Blender 3.1.2
# www.blender.org
o Cube
v 0.302926 6.413566 -0.346493
v 0.302926 -1.000000 -0.346493
v 0.302926 6.413566 0.000000
v 0.302926 -1.000000 0.000000
v 0.000000 -1.000000 -0.346493
v 0.000000 -1.000000 0.000000
v 0.302926 6.413566 -0.346493
v 0.302926 -1.000000 -0.346493
v 0.302926 6.413566 0.000000
v 0.000000 6.413566 -0.346493
v 0.000000 -1.000000 -0.346493
v 0.000000 6.413566 -1.878434
v 0.302926 5.962468 -0.346493
v 0.000000 5.962468 -0.346493
v 0.000000 6.413566 -2.342589
v 0.302926 6.413566 -2.342589
v 0.302926 5.962468 -2.342589
v 0.000000 5.962468 -2.342589
v 0.302926 6.664420 0.000000
v 0.000000 6.664420 0.000000
v 0.302926 6.664420 -0.346493
v 0.000000 6.664420 -0.346493
v 0.000000 5.962468 -1.878434
v 0.302926 5.962468 -1.878434
v 0.302926 6.413566 -1.878434
v 0.000000 5.781434 -2.342589
v 0.302926 5.781434 -2.342589
v 0.000000 5.781434 -1.878434
v 0.302926 5.781434 -1.878434
v 0.302926 5.962468 -2.342589
v 0.000000 5.962468 -2.342589
v 0.302926 5.962468 -1.878434
v 0.000000 5.781434 -2.342589
v 0.302926 5.781434 -2.342589
v 0.302926 5.781434 -1.878434
v -0.302926 6.413566 -0.346493
v -0.302926 -1.000000 -0.346493
v -0.302926 6.413566 0.000000
v -0.302926 -1.000000 0.000000
v -0.302926 6.413566 -0.346493
v -0.302926 -1.000000 -0.346493
v -0.302926 6.413566 0.000000
v -0.302926 5.962468 -0.346493
v -0.302926 6.413566 -2.342589
v -0.302926 5.962468 -2.342589
v -0.302926 6.664420 0.000000
v -0.302926 6.664420 -0.346493
v -0.302926 5.962468 -1.878434
v -0.302926 6.413566 -1.878434
v -0.302926 5.781434 -2.342589
v -0.302926 5.781434 -1.878434
v -0.302926 5.962468 -2.342589
v -0.302926 5.962468 -1.878434
v -0.302926 5.781434 -2.342589
v -0.302926 5.781434 -1.878434
v 0.302926 6.413566 0.346493
v 0.302926 -1.000000 0.346493
v 0.000000 -1.000000 0.346493
v 0.302926 6.413566 0.346493
v 0.302926 -1.000000 0.346493
v 0.000000 6.413566 0.346493
v 0.000000 -1.000000 0.346493
v 0.000000 6.413566 1.878434
v 0.302926 5.962468 0.346493
v 0.000000 5.962468 0.346493
v 0.000000 6.413566 2.342589
v 0.302926 6.413566 2.342589
v 0.302926 5.962468 2.342589
v 0.000000 5.962468 2.342589
v 0.302926 6.664420 0.346493
v 0.000000 6.664420 0.346493
v 0.000000 5.962468 1.878434
v 0.302926 5.962468 1.878434
v 0.302926 6.413566 1.878434
v 0.000000 5.781434 2.342589
v 0.302926 5.781434 2.342589
v 0.000000 5.781434 1.878434
v 0.302926 5.781434 1.878434
v 0.302926 5.962468 2.342589
v 0.000000 5.962468 2.342589
v 0.302926 5.962468 1.878434
v 0.000000 5.781434 2.342589
v 0.302926 5.781434 2.342589
v 0.302926 5.781434 1.878434
v -0.302926 6.413566 0.346493
v -0.302926 -1.000000 0.346493
v -0.302926 6.413566 0.346493
v -0.302926 -1.000000 0.346493
v -0.302926 5.962468 0.346493
v -0.302926 6.413566 2.342589
v -0.302926 5.962468 2.342589
v -0.302926 6.664420 0.346493
v -0.302926 5.962468 1.878434
v -0.302926 6.413566 1.878434
v -0.302926 5.781434 2.342589
v -0.302926 5.781434 1.878434
v -0.302926 5.962468 2.342589
v -0.302926 5.962468 1.878434
v -0.302926 5.781434 2.342589
v -0.302926 5.781434 1.878434
vn -0.0000 -1.0000 -0.0000
vn 1.0000 -0.0000 -0.0000
vn -0.0000 -0.0000 -1.0000
vn -0.0000 1.0000 -0.0000
vn -0.0000 -0.0000 1.0000
vn -1.0000 -0.0000 -0.0000
vt 0.046738 1.000000
vt 0.046738 0.000000
vt 0.271030 0.060848
vt 0.000000 1.000000
vt 0.271030 0.107585
vt 0.000000 0.000000
vt 0.230169 0.060848
vt 0.230169 0.107585
vt 0.288425 0.201061
vt 0.087599 0.000000
vt 0.264006 0.201061
vt 0.148447 0.269249
vt 0.046738 0.000000
vt 0.264006 0.154323
vt 0.189308 0.269249
vt 0.288425 0.241922
vt 0.087599 0.000000
vt 0.189308 0.062609
vt 0.230169 0.206640
vt 0.046738 0.939152
vt 0.148447 0.000000
vt 0.087599 0.939152
vt 0.189308 0.206640
vt 0.271030 0.060848
vt 0.189308 0.000000
vt 0.230169 0.060848
vt 0.087599 0.269249
vt 0.148447 0.000000
vt 0.230169 0.000000
vt 0.148447 0.269249
vt 0.230169 0.107585
vt 0.271030 0.000000
vt 0.230169 0.107585
vt 0.230169 0.154323
vt 0.271030 0.154323
vt 0.230169 0.107585
vt 0.254588 0.201061
vt 0.230169 0.201061
vt 0.254588 0.241922
vt 0.271030 0.107585
vt 0.189308 0.000000
vt 0.254588 0.241922
vt 0.254588 0.282783
vt 0.148447 0.206640
vt 0.230169 0.000000
vt 0.230169 0.107585
vt 0.148447 0.062609
vt 0.087599 0.206640
vt 0.230169 0.107585
vt 0.189308 0.206640
vt 0.230169 0.206640
vt 0.230169 0.107585
vt 0.189308 0.269249
vt 0.279007 0.241922
vt 0.230169 0.269249
vt 0.279007 0.282783
vt 0.230169 0.107585
vt 0.230169 0.263670
vt 0.230169 0.107585
vt 0.264006 0.154323
vt 0.264006 0.195184
vt 0.230169 0.107585
vt 0.230169 0.201061
vt 0.230169 0.107585
vt 0.288425 0.195184
vt 0.230169 0.107585
vt 0.288425 0.154323
vt 0.254588 0.263670
vt 0.230169 0.107585
vt 0.230169 0.107585
vt 0.254588 0.201061
vt 0.046738 1.000000
vt 0.046738 0.000000
vt 0.271030 0.060848
vt 0.000000 1.000000
vt 0.271030 0.107585
vt 0.000000 0.000000
vt 0.288425 0.201061
vt 0.087599 0.000000
vt 0.264006 0.201061
vt 0.148447 0.269249
vt 0.046738 0.000000
vt 0.264006 0.154323
vt 0.230169 0.206640
vt 0.046738 0.939152
vt 0.148447 0.000000
vt 0.230169 0.060848
vt 0.087599 0.269249
vt 0.148447 0.000000
vt 0.230169 0.000000
vt 0.148447 0.269249
vt 0.230169 0.107585
vt 0.230169 0.154323
vt 0.230169 0.107585
vt 0.254588 0.201061
vt 0.230169 0.201061
vt 0.254588 0.282783
vt 0.148447 0.206640
vt 0.230169 0.000000
vt 0.230169 0.107585
vt 0.148447 0.062609
vt 0.087599 0.206640
vt 0.230169 0.206640
vt 0.230169 0.107585
vt 0.230169 0.269249
vt 0.279007 0.282783
vt 0.230169 0.107585
vt 0.230169 0.263670
vt 0.264006 0.154323
vt 0.230169 0.107585
vt 0.230169 0.201061
vt 0.230169 0.107585
vt 0.288425 0.154323
vt 0.254588 0.263670
vt 0.230169 0.107585
vt 0.254588 0.201061
vt 0.230169 0.107585
vt 0.046738 1.000000
vt 0.046738 0.000000
vt 0.271030 0.060848
vt 0.230169 0.060848
vt 0.288425 0.201061
vt 0.087599 0.000000
vt 0.264006 0.201061
vt 0.148447 0.269249
vt 0.046738 0.000000
vt 0.189308 0.269249
vt 0.288425 0.241922
vt 0.087599 0.000000
vt 0.189308 0.062609
vt 0.230169 0.206640
vt 0.046738 0.939152
vt 0.148447 0.000000
vt 0.087599 0.939152
vt 0.189308 0.206640
vt 0.271030 0.060848
vt 0.189308 0.000000
vt 0.230169 0.060848
vt 0.087599 0.269249
vt 0.148447 0.000000
vt 0.230169 0.000000
vt 0.148447 0.269249
vt 0.230169 0.107585
vt 0.271030 0.000000
vt 0.230169 0.107585
vt 0.230169 0.107585
vt 0.254588 0.201061
vt 0.230169 0.201061
vt 0.254588 0.241922
vt 0.271030 0.107585
vt 0.189308 0.000000
vt 0.254588 0.241922
vt 0.254588 0.282783
vt 0.148447 0.206640
vt 0.230169 0.000000
vt 0.230169 0.107585
vt 0.148447 0.062609
vt 0.087599 0.206640
vt 0.189308 0.206640
vt 0.230169 0.107585
vt 0.230169 0.206640
vt 0.230169 0.107585
vt 0.189308 0.269249
vt 0.279007 0.241922
vt 0.230169 0.269249
vt 0.279007 0.282783
vt 0.230169 0.107585
vt 0.230169 0.263670
vt 0.264006 0.154323
vt 0.230169 0.107585
vt 0.264006 0.195184
vt 0.230169 0.107585
vt 0.230169 0.201061
vt 0.230169 0.107585
vt 0.288425 0.195184
vt 0.230169 0.107585
vt 0.288425 0.154323
vt 0.254588 0.263670
vt 0.230169 0.107585
vt 0.254588 0.201061
vt 0.230169 0.107585
vt 0.046738 1.000000
vt 0.046738 0.000000
vt 0.271030 0.060848
vt 0.288425 0.201061
vt 0.087599 0.000000
vt 0.264006 0.201061
vt 0.148447 0.269249
vt 0.046738 0.000000
vt 0.230169 0.206640
vt 0.046738 0.939152
vt 0.148447 0.000000
vt 0.230169 0.060848
vt 0.087599 0.269249
vt 0.148447 0.000000
vt 0.230169 0.000000
vt 0.148447 0.269249
vt 0.230169 0.107585
vt 0.230169 0.107585
vt 0.254588 0.201061
vt 0.230169 0.201061
vt 0.254588 0.282783
vt 0.148447 0.206640
vt 0.230169 0.000000
vt 0.230169 0.107585
vt 0.148447 0.062609
vt 0.087599 0.206640
vt 0.230169 0.206640
vt 0.230169 0.107585
vt 0.230169 0.269249
vt 0.279007 0.282783
vt 0.230169 0.107585
vt 0.230169 0.263670
vt 0.230169 0.107585
vt 0.264006 0.154323
vt 0.230169 0.201061
vt 0.230169 0.107585
vt 0.288425 0.154323
vt 0.254588 0.263670
vt 0.230169 0.107585
vt 0.230169 0.107585
vt 0.254588 0.201061
s 0
f 2/3/1 6/8/1 5/7/1
f 1/1/2 4/6/2 2/2/2
f 10/16/3 21/37/3 7/9/3
f 18/33/4 30/59/4 31/62/4
f 14/22/3 8/13/3 11/17/3
f 15/24/3 17/29/3 18/32/3
f 24/44/2 16/27/2 25/48/2
f 25/47/4 15/25/4 12/18/4
f 22/40/4 19/34/4 21/36/4
f 7/11/2 19/34/2 9/14/2
f 7/12/4 12/18/4 10/15/4
f 13/21/2 25/48/2 7/10/2
f 14/23/1 24/45/1 13/19/1
f 28/53/1 27/51/1 29/55/1
f 24/46/4 35/70/4 32/64/4
f 23/42/5 29/56/5 24/43/5
f 30/60/3 33/65/3 31/61/3
f 32/63/2 34/68/2 30/58/2
f 17/31/4 32/64/4 30/59/4
f 29/57/4 34/69/4 35/70/4
f 27/52/4 33/66/4 34/69/4
f 6/8/1 37/74/1 5/7/1
f 39/77/6 36/72/6 37/73/6
f 47/95/3 10/16/3 40/78/3
f 18/33/4 52/110/4 45/92/4
f 41/82/3 14/22/3 11/17/3
f 45/90/3 15/24/3 18/32/3
f 44/88/6 48/98/6 49/102/6
f 15/25/4 49/101/4 12/18/4
f 46/93/4 22/40/4 47/94/4
f 46/93/6 40/80/6 42/83/6
f 12/18/4 40/81/4 10/15/4
f 49/102/6 43/86/6 40/79/6
f 48/99/1 14/23/1 43/84/1
f 50/103/1 28/53/1 51/105/1
f 48/100/4 55/117/4 51/107/4
f 51/106/5 23/42/5 48/97/5
f 33/65/3 52/109/3 31/61/3
f 54/114/6 53/111/6 52/108/6
f 45/92/4 53/112/4 48/100/4
f 51/107/4 54/115/4 50/104/4
f 50/104/4 33/66/4 26/49/4
f 6/8/1 57/120/1 58/121/1
f 4/6/2 56/118/2 57/119/2
f 70/147/5 61/128/5 59/122/5
f 69/145/4 79/170/4 68/143/4
f 60/126/5 65/134/5 62/129/5
f 68/141/5 66/136/5 69/144/5
f 67/139/2 73/154/2 74/158/2
f 66/137/4 74/157/4 63/130/4
f 19/34/4 71/150/4 70/146/4
f 19/34/2 59/124/2 9/14/2
f 63/130/4 59/125/4 61/127/4
f 74/158/2 64/133/2 59/123/2
f 73/155/1 65/135/1 64/131/1
f 76/161/1 77/163/1 78/165/1
f 73/156/4 84/181/4 78/167/4
f 78/166/3 72/152/3 73/153/3
f 82/175/5 79/169/5 80/171/5
f 83/178/2 81/173/2 79/168/2
f 68/143/4 81/174/4 73/156/4
f 78/167/4 83/179/4 76/162/4
f 76/162/4 82/176/4 75/160/4
f 86/184/1 6/8/1 58/121/1
f 85/182/6 39/77/6 86/183/6
f 61/128/5 92/200/5 87/185/5
f 69/145/4 97/214/4 80/172/4
f 65/134/5 88/189/5 62/129/5
f 66/136/5 91/196/5 69/144/5
f 93/203/6 90/194/6 94/207/6
f 94/206/4 66/137/4 63/130/4
f 71/150/4 46/93/4 92/199/4
f 87/187/6 46/93/6 42/83/6
f 87/188/4 63/130/4 61/127/4
f 89/192/6 94/207/6 87/186/6
f 65/135/1 93/204/1 89/190/1
f 77/163/1 95/208/1 96/210/1
f 93/205/4 100/221/4 98/217/4
f 72/152/3 96/211/3 93/202/3
f 97/215/5 82/175/5 80/171/5
f 98/216/6 99/219/6 97/213/6
f 91/198/4 98/217/4 97/214/4
f 96/212/4 99/220/4 100/221/4
f 95/209/4 82/176/4 99/220/4
f 2/3/1 4/5/1 6/8/1
f 1/1/2 3/4/2 4/6/2
f 10/16/3 22/39/3 21/37/3
f 18/33/4 17/31/4 30/59/4
f 14/22/3 13/20/3 8/13/3
f 15/24/3 16/26/3 17/29/3
f 24/44/2 17/30/2 16/27/2
f 25/47/4 16/28/4 15/25/4
f 22/40/4 20/35/4 19/34/4
f 7/11/2 21/38/2 19/34/2
f 7/12/4 25/47/4 12/18/4
f 13/21/2 24/44/2 25/48/2
f 14/23/1 23/41/1 24/45/1
f 28/53/1 26/50/1 27/51/1
f 24/46/4 29/57/4 35/70/4
f 23/42/5 28/54/5 29/56/5
f 30/60/3 34/67/3 33/65/3
f 32/63/2 35/71/2 34/68/2
f 17/31/4 24/46/4 32/64/4
f 29/57/4 27/52/4 34/69/4
f 27/52/4 26/49/4 33/66/4
f 6/8/1 39/76/1 37/74/1
f 39/77/6 38/75/6 36/72/6
f 47/95/3 22/39/3 10/16/3
f 18/33/4 31/62/4 52/110/4
f 41/82/3 43/85/3 14/22/3
f 45/90/3 44/87/3 15/24/3
f 44/88/6 45/91/6 48/98/6
f 15/25/4 44/89/4 49/101/4
f 46/93/4 20/35/4 22/40/4
f 46/93/6 47/96/6 40/80/6
f 12/18/4 49/101/4 40/81/4
f 49/102/6 48/98/6 43/86/6
f 48/99/1 23/41/1 14/23/1
f 50/103/1 26/50/1 28/53/1
f 48/100/4 53/112/4 55/117/4
f 51/106/5 28/54/5 23/42/5
f 33/65/3 54/113/3 52/109/3
f 54/114/6 55/116/6 53/111/6
f 45/92/4 52/110/4 53/112/4
f 51/107/4 55/117/4 54/115/4
f 50/104/4 54/115/4 33/66/4
f 6/8/1 4/5/1 57/120/1
f 4/6/2 3/4/2 56/118/2
f 70/147/5 71/149/5 61/128/5
f 69/145/4 80/172/4 79/170/4
f 60/126/5 64/132/5 65/134/5
f 68/141/5 67/138/5 66/136/5
f 67/139/2 68/142/2 73/154/2
f 66/137/4 67/140/4 74/157/4
f 19/34/4 20/35/4 71/150/4
f 19/34/2 70/148/2 59/124/2
f 63/130/4 74/157/4 59/125/4
f 74/158/2 73/154/2 64/133/2
f 73/155/1 72/151/1 65/135/1
f 76/161/1 75/159/1 77/163/1
f 73/156/4 81/174/4 84/181/4
f 78/166/3 77/164/3 72/152/3
f 82/175/5 83/177/5 79/169/5
f 83/178/2 84/180/2 81/173/2
f 68/143/4 79/170/4 81/174/4
f 78/167/4 84/181/4 83/179/4
f 76/162/4 83/179/4 82/176/4
f 86/184/1 39/76/1 6/8/1
f 85/182/6 38/75/6 39/77/6
f 61/128/5 71/149/5 92/200/5
f 69/145/4 91/198/4 97/214/4
f 65/134/5 89/191/5 88/189/5
f 66/136/5 90/193/5 91/196/5
f 93/203/6 91/197/6 90/194/6
f 94/206/4 90/195/4 66/137/4
f 71/150/4 20/35/4 46/93/4
f 87/187/6 92/201/6 46/93/6
f 87/188/4 94/206/4 63/130/4
f 89/192/6 93/203/6 94/207/6
f 65/135/1 72/151/1 93/204/1
f 77/163/1 75/159/1 95/208/1
f 93/205/4 96/212/4 100/221/4
f 72/152/3 77/164/3 96/211/3
f 97/215/5 99/218/5 82/175/5
f 98/216/6 100/222/6 99/219/6
f 91/198/4 93/205/4 98/217/4
f 96/212/4 95/209/4 99/220/4
f 95/209/4 75/160/4 82/176/4
